<svg xmlns="http://www.w3.org/2000/svg" width="45" height="45"><path d="M11 4.031c-7.47.277-13.253 9.436-6.125 26.907C2.719 20.87 11.098 2.19 15 32c.32-.483-1.969 5.948-1.969 6 0 1.646 4.235 2.969 9.469 2.969s9.469-1.323 9.469-2.969c0-.052-2.319-6.53-1.969-6 3.902-29.81 12.281-11.13 10.125-1.062C50.986 4.316 31.825-2.998 22.5 11 19.294 6.188 14.913 3.887 11 4.031" style="opacity:1;fill:#fff;fill-opacity:1;fill-rule:nonzero;stroke:#000;stroke-width:1.5;stroke-linecap:round;stroke-linejoin:round;stroke-miterlimit:4;stroke-dasharray:none;stroke-dashoffset:0;stroke-opacity:1"/><path d="M10.607 33.686a4.243 4.243 0 1 1-8.486 0 4.243 4.243 0 1 1 8.486 0" style="opacity:1;fill:#fff;fill-opacity:1;fill-rule:nonzero;stroke:#000;stroke-width:1.6264247199999999;stroke-linecap:round;stroke-linejoin:round;stroke-miterlimit:4;stroke-dasharray:none;stroke-dashoffset:0;stroke-opacity:1" transform="matrix(.74695 0 0 1.13874 1.787 -3.436)"/><path d="M10.607 33.686a4.243 4.243 0 1 1-8.486 0 4.243 4.243 0 1 1 8.486 0" style="opacity:1;fill:#fff;fill-opacity:1;fill-rule:nonzero;stroke:#000;stroke-width:1.62642467;stroke-linecap:round;stroke-linejoin:round;stroke-miterlimit:4;stroke-dasharray:none;stroke-dashoffset:0;stroke-opacity:1" transform="matrix(-.74695 0 0 1.13874 43.215 -3.436)"/><path d="M15 32c3.082-5.139 5.957-9.15 7.5-21" style="opacity:1;fill:none;fill-opacity:1;fill-rule:nonzero;stroke:#000;stroke-width:1.5;stroke-linecap:round;stroke-linejoin:round;stroke-miterlimit:4;stroke-dasharray:none;stroke-dashoffset:0;stroke-opacity:1"/><path d="M31.378 14.943c-3.082-5.139-5.957-9.15-7.5-21" style="opacity:1;fill:none;fill-opacity:1;fill-rule:nonzero;stroke:#000;stroke-width:1.5;stroke-linecap:round;stroke-linejoin:round;stroke-miterlimit:4;stroke-dasharray:none;stroke-dashoffset:0;stroke-opacity:1" transform="translate(-1.378 17.057)"/><path d="M15 32c5-2 10-1.984 15 0" style="opacity:1;fill:none;fill-opacity:1;fill-rule:nonzero;stroke:#000;stroke-width:1.5;stroke-linecap:round;stroke-linejoin:round;stroke-miterlimit:4;stroke-dasharray:none;stroke-dashoffset:0;stroke-opacity:1"/></svg>